<?xml version="1.0" encoding="utf-8"?>
<!-- Generator: Adobe Illustrator 28.0.0, SVG Export Plug-In . SVG Version: 6.00 Build 0)  -->
<svg version="1.1" id="Layer_1" xmlns="http://www.w3.org/2000/svg" xmlns:xlink="http://www.w3.org/1999/xlink" x="0px" y="0px"
	 viewBox="0 0 991.075 277.669" style="enable-background:new 0 0 991.075 277.669;" xml:space="preserve">
<style type="text/css">
	.st0{fill-rule:evenodd;clip-rule:evenodd;}
	.st1{fill-rule:evenodd;clip-rule:evenodd;fill:#A238FF;}
</style>
<path class="st0" d="M353.03,67.679h54.962c34.031,0,58.095,22.64,58.095,54.82c0,32.18-24.064,54.82-58.095,54.82H353.03V67.679z
	 M395.747,147.702h9.967c10.679,0,16.375-7.119,16.375-25.203c0-18.083-5.696-25.203-16.375-25.203h-9.967V147.702z M562.91,177.319
	h-90.275V67.679h90.275v29.617h-47.701v12.673h44.853v24.206h-44.853v13.527h47.701V177.319z M663.436,177.319h-90.274V67.679
	h90.274v29.617h-47.7v12.673h44.853v24.206h-44.853v13.527h47.7V177.319z M991.075,177.319
	c-6.152-16.765-14.756-34.653-26.33-54.704c13.536-3.97,21.631-12.504,21.631-25.603c0-19.935-18.368-29.332-47.416-29.332h-59.803
	v109.64h42.716v-45.352c9.491,15.984,16.483,31.068,21.074,45.352H991.075z M921.873,116.661V97.296h14.809
	c6.265,0,9.825,3.418,9.825,9.683s-3.56,9.682-9.825,9.682H921.873z M868.905,177.319H778.63V67.679h90.275v29.617h-47.7v12.673
	h44.853v24.206h-44.853v13.527h47.7V177.319z M673.69,97.296h44.076c-18.287,14.963-33.337,31.91-44.931,50.406v29.617h96.967
	v-29.617h-48.466c11.106-16.158,26.625-32.248,48.466-50.406V67.679H673.69V97.296z"/>
<path class="st1" d="M232.881,42.363c2.569-14.89,6.339-24.253,10.515-24.271h0.008c7.787,0.027,14.099,32.499,14.099,72.59
	c0,40.092-6.321,72.59-14.116,72.59c-3.196,0-6.145-5.518-8.519-14.765c-3.752,33.85-11.538,57.119-20.552,57.119
	c-6.974,0-13.233-13.978-17.435-36.022c-2.869,41.924-10.09,71.669-18.53,71.669c-5.297,0-10.126-11.787-13.701-30.979
	c-4.299,39.617-14.231,67.376-25.813,67.376s-21.532-27.75-25.813-67.376c-3.549,19.192-8.378,30.979-13.701,30.979
	c-8.44,0-15.643-29.745-18.53-71.669c-4.202,22.044-10.443,36.022-17.435,36.022c-9.004,0-16.8-23.261-20.551-57.119
	c-2.357,9.274-5.323,14.765-8.519,14.765c-7.795,0-14.116-32.498-14.116-72.59c0-40.091,6.321-72.59,14.116-72.59
	c4.184,0,7.928,9.39,10.523,24.271C48.968,16.688,55.721,0,63.357,0c9.066,0,16.923,23.6,20.64,57.87
	c3.637-24.942,9.155-40.842,15.334-40.842c8.66,0,16.022,31.273,18.75,74.897c5.129-22.366,12.554-36.398,20.773-36.398
	c8.218,0,15.643,14.04,20.763,36.398c2.737-43.624,10.09-74.897,18.751-74.897c6.17,0,11.679,15.901,15.334,40.842
	C197.411,23.6,205.268,0,214.334,0C221.944,0,228.723,16.697,232.881,42.363z M0,83.542C0,65.62,3.584,51.088,8.007,51.088
	c4.423,0,8.007,14.532,8.007,32.454c0,17.921-3.584,32.454-8.007,32.454C3.584,115.996,0,101.463,0,83.542z M261.654,83.542
	c0-17.922,3.584-32.454,8.007-32.454c4.422,0,8.007,14.532,8.007,32.454c0,17.921-3.585,32.454-8.007,32.454
	C265.238,115.996,261.654,101.463,261.654,83.542z"/>
</svg>
